<?xml version="1.0" encoding="UTF-8" standalone="no"?>
<!DOCTYPE svg PUBLIC "-//W3C//DTD SVG 1.1//EN" "http://www.w3.org/Graphics/SVG/1.1/DTD/svg11.dtd">
<!-- Created with Vectornator (http://vectornator.io/) -->
<svg height="100%" stroke-miterlimit="10" style="fill-rule:nonzero;clip-rule:evenodd;stroke-linecap:round;stroke-linejoin:round;" version="1.1" viewBox="0 0 448 512" width="100%" xml:space="preserve" xmlns="http://www.w3.org/2000/svg" xmlns:vectornator="http://vectornator.io" xmlns:xlink="http://www.w3.org/1999/xlink">
<defs/>
<g id="Layer-1" vectornator:layerName="Layer 1">
<path d="M105.529 190.867C107.178 190.867 108.83 190.791 110.477 190.867C157.176 193.024 203.894 194.833 250.563 197.568C274.154 198.951 297.354 202.563 320.977 203.288C337.599 203.798 354.796 204.348 371.433 203.417C375.782 203.173 379.943 201.506 384.234 200.889C388.346 200.297 392.455 200.484 396.586 200.373C404.555 200.159 412.552 200.133 420.543 200.133C423.25 200.133 425.926 199.923 428.59 199.417C429.479 199.249 430.382 199.069 431.269 198.88C431.545 198.822 432.179 198.324 432.06 198.58C430.84 201.224 429.152 203.734 428.59 206.639C427.661 211.448 428.344 216.908 428.344 221.787C428.344 237.167 430.997 252.136 431.931 267.459C432.887 283.148 435.329 299.349 433.836 315.081C432.995 323.935 430.143 332.826 429.008 341.723C428.01 349.55 427.03 357.333 425.903 365.147C425.684 366.657 426.077 368.399 425.637 369.855C425.357 370.782 424.025 370.54 423.659 371.601C423.137 373.115 424.404 376.822 424.613 377.955C425.47 382.584 425.999 387.301 427.62 391.741C428.452 394.018 430.608 396.484 431.169 398.729C432.301 403.255 429.341 410.07 428.15 414.183C424.581 426.509 415.136 436.644 403.44 441.789C399.459 443.541 394.951 444.181 390.806 445.557C380.63 448.935 370.752 451.2 360.206 452.891C350.352 454.471 340.518 456.691 330.597 457.838C322.74 458.746 314.796 458.697 306.92 459.619C294.244 461.102 281.605 463.072 268.814 463.326C262.584 463.45 255.916 463.907 249.692 463.326C248.42 463.208 247.345 462.447 246.11 462.164C242.163 461.259 237.57 461.518 233.576 461.518C216.591 461.518 199.238 462.582 182.285 461.518C179.481 461.342 176.828 460.269 173.997 460.138C166.123 459.775 158.154 460.138 150.274 460.138C146.675 460.138 139.258 461.39 136.37 458.338C133.712 455.531 132.207 451.297 129.774 448.24C126.983 444.733 123.138 442.535 119.915 439.524C118.809 438.491 118.45 436.96 117.27 435.871C116.358 435.029 112.539 429.546 111.83 429.958C111.354 430.234 112.3 432.572 112.3 433.193" fill="#323330" fill-rule="nonzero" opacity="1" stroke="none"/>
</g>
<g id="Untitled" vectornator:layerName="Untitled">
<path d="M400 32L48 32C21.5 32 0 53.5 0 80L0 432C0 458.5 21.5 480 48 480L400 480C426.5 480 448 458.5 448 432L448 80C448 53.5 426.5 32 400 32ZM243.8 381.4C243.8 425 218.2 444.9 180.9 444.9C147.2 444.9 127.7 427.5 117.7 406.4L152 385.7C158.6 397.4 164.6 407.3 179.1 407.3C192.9 407.3 201.7 401.9 201.7 380.8L201.7 237.7L243.8 237.7C243.8 237.7 243.8 381.4 243.8 381.4ZM343.4 444.9C304.3 444.9 279 426.3 266.7 401.9L301 382.1C310 396.8 321.8 407.7 342.5 407.7C359.9 407.7 371.1 399 371.1 386.9C371.1 372.5 359.7 367.4 340.4 358.9L329.9 354.4C299.5 341.5 279.4 325.2 279.4 290.9C279.4 259.3 303.5 235.3 341 235.3C367.8 235.3 387 244.6 400.8 269L368 290C360.8 277.1 353 272 340.9 272C328.6 272 320.8 279.8 320.8 290C320.8 302.6 328.6 307.7 346.7 315.6L357.2 320.1C393 335.4 413.1 351.1 413.1 386.3C413.1 424.1 383.3 444.9 343.4 444.9Z" fill="#f0db4f" fill-rule="nonzero" opacity="1" stroke="none" vectornator:layerName="path"/>
</g>
</svg>
